<?xml version="1.0" encoding="UTF-8"?>
<svg id="a" data-name="Layer 1" xmlns="http://www.w3.org/2000/svg" viewBox="0 0 192 192">
  <rect width="192" height="192" fill="#842eff"/>
  <g>
    <path d="M138.34,159.51H53.66c-11.67,0-21.17-9.5-21.17-21.17V53.66c0-11.67,9.5-21.17,21.17-21.17h84.68c11.67,0,21.17,9.5,21.17,21.17v84.68c0,11.67-9.5,21.17-21.17,21.17ZM53.66,46.6c-3.89,0-7.06,3.16-7.06,7.06v84.68c0,3.89,3.16,7.06,7.06,7.06h84.68c3.89,0,7.06-3.16,7.06-7.06V53.66c0-3.89-3.16-7.06-7.06-7.06H53.66Z" fill="#4200a2"/>
    <path d="M110.11,124.23h-28.23c-7.78,0-14.11-6.33-14.11-14.11v-28.23c0-7.78,6.33-14.11,14.11-14.11h28.23c7.78,0,14.11,6.33,14.11,14.11v28.23c0,7.78-6.33,14.11-14.11,14.11ZM81.89,81.89h0v28.23h28.23v-28.23h-28.23Z" fill="#4200a2"/>
    <path d="M117.17,46.6c-3.9,0-7.06-3.16-7.06-7.06v-14.11c0-3.9,3.16-7.06,7.06-7.06s7.06,3.16,7.06,7.06v14.11c0,3.9-3.16,7.06-7.06,7.06Z" fill="#4200a2"/>
    <path d="M117.17,173.63c-3.9,0-7.06-3.16-7.06-7.06v-14.11c0-3.9,3.16-7.06,7.06-7.06s7.06,3.16,7.06,7.06v14.11c0,3.9-3.16,7.06-7.06,7.06Z" fill="#4200a2"/>
    <path d="M39.54,124.23h-14.11c-3.9,0-7.06-3.16-7.06-7.06s3.16-7.06,7.06-7.06h14.11c3.9,0,7.06,3.16,7.06,7.06s-3.16,7.06-7.06,7.06Z" fill="#4200a2"/>
    <path d="M39.54,81.89h-14.11c-3.9,0-7.06-3.16-7.06-7.06s3.16-7.06,7.06-7.06h14.11c3.9,0,7.06,3.16,7.06,7.06s-3.16,7.06-7.06,7.06Z" fill="#4200a2"/>
    <path d="M166.57,124.23h-14.11c-3.9,0-7.06-3.16-7.06-7.06s3.16-7.06,7.06-7.06h14.11c3.9,0,7.06,3.16,7.06,7.06s-3.16,7.06-7.06,7.06Z" fill="#4200a2"/>
    <path d="M166.57,81.89h-14.11c-3.9,0-7.06-3.16-7.06-7.06s3.16-7.06,7.06-7.06h14.11c3.9,0,7.06,3.16,7.06,7.06s-3.16,7.06-7.06,7.06Z" fill="#4200a2"/>
    <path d="M74.83,46.6c-3.9,0-7.06-3.16-7.06-7.06v-14.11c0-3.9,3.16-7.06,7.06-7.06s7.06,3.16,7.06,7.06v14.11c0,3.9-3.16,7.06-7.06,7.06Z" fill="#4200a2"/>
    <path d="M74.83,173.63c-3.9,0-7.06-3.16-7.06-7.06v-14.11c0-3.9,3.16-7.06,7.06-7.06s7.06,3.16,7.06,7.06v14.11c0,3.9-3.16,7.06-7.06,7.06Z" fill="#4200a2"/>
  </g>
</svg>