<?xml version="1.0" encoding="UTF-8"?>
<svg id="a" data-name="Layer 1" xmlns="http://www.w3.org/2000/svg" viewBox="0 0 512 512">
  <rect width="512" height="512" fill="#842eff"/>
  <g>
    <path d="M368.91,425.37h-225.82c-31.13,0-56.46-25.32-56.46-56.46v-225.82c0-31.13,25.32-56.46,56.46-56.46h225.82c31.13,0,56.46,25.32,56.46,56.46v225.82c0,31.13-25.32,56.46-56.46,56.46ZM143.09,124.27c-10.38,0-18.82,8.44-18.82,18.82v225.82c0,10.38,8.44,18.82,18.82,18.82h225.82c10.38,0,18.82-8.44,18.82-18.82v-225.82c0-10.38-8.44-18.82-18.82-18.82h-225.82Z" fill="#4200a2"/>
    <path d="M293.64,331.27h-75.27c-20.75,0-37.64-16.89-37.64-37.64v-75.27c0-20.75,16.89-37.64,37.64-37.64h75.27c20.75,0,37.64,16.89,37.64,37.64v75.27c0,20.75-16.89,37.64-37.64,37.64ZM218.36,218.36h-.02l.02,75.27h75.27v-75.27h-75.27Z" fill="#4200a2"/>
    <path d="M312.46,124.27c-10.4,0-18.82-8.42-18.82-18.82v-37.64c0-10.4,8.42-18.82,18.82-18.82s18.82,8.42,18.82,18.82v37.64c0,10.4-8.42,18.82-18.82,18.82Z" fill="#4200a2"/>
    <path d="M312.46,463.01c-10.4,0-18.82-8.42-18.82-18.82v-37.64c0-10.4,8.42-18.82,18.82-18.82s18.82,8.42,18.82,18.82v37.64c0,10.4-8.42,18.82-18.82,18.82Z" fill="#4200a2"/>
    <path d="M105.45,331.27h-37.64c-10.4,0-18.82-8.42-18.82-18.82s8.42-18.82,18.82-18.82h37.64c10.4,0,18.82,8.42,18.82,18.82s-8.42,18.82-18.82,18.82Z" fill="#4200a2"/>
    <path d="M105.45,218.36h-37.64c-10.4,0-18.82-8.42-18.82-18.82s8.42-18.82,18.82-18.82h37.64c10.4,0,18.82,8.42,18.82,18.82s-8.42,18.82-18.82,18.82Z" fill="#4200a2"/>
    <path d="M444.19,331.27h-37.64c-10.4,0-18.82-8.42-18.82-18.82s8.42-18.82,18.82-18.82h37.64c10.4,0,18.82,8.42,18.82,18.82s-8.42,18.82-18.82,18.82Z" fill="#4200a2"/>
    <path d="M444.19,218.36h-37.64c-10.4,0-18.82-8.42-18.82-18.82s8.42-18.82,18.82-18.82h37.64c10.4,0,18.82,8.42,18.82,18.82s-8.42,18.82-18.82,18.82Z" fill="#4200a2"/>
    <path d="M199.54,124.27c-10.4,0-18.82-8.42-18.82-18.82v-37.64c0-10.4,8.42-18.82,18.82-18.82s18.82,8.42,18.82,18.82v37.64c0,10.4-8.42,18.82-18.82,18.82Z" fill="#4200a2"/>
    <path d="M199.54,463.01c-10.4,0-18.82-8.42-18.82-18.82v-37.64c0-10.4,8.42-18.82,18.82-18.82s18.82,8.42,18.82,18.82v37.64c0,10.4-8.42,18.82-18.82,18.82Z" fill="#4200a2"/>
  </g>
</svg>